<?xml version="1.0" encoding="utf-8"?>
<!-- Generator: Adobe Illustrator 16.0.0, SVG Export Plug-In . SVG Version: 6.00 Build 0)  -->
<!DOCTYPE svg PUBLIC "-//W3C//DTD SVG 1.1//EN" "http://www.w3.org/Graphics/SVG/1.1/DTD/svg11.dtd">
<svg version="1.1" id="Capa_1" xmlns="http://www.w3.org/2000/svg" xmlns:xlink="http://www.w3.org/1999/xlink" x="0px" y="0px"
	 width="50.875px" height="59.5px" viewBox="17.25 2 50.875 59.5" enable-background="new 17.25 2 50.875 59.5"
	 xml:space="preserve">
<path class="s_icon" id="XMLID_3_" d="M67.16,46.396l-1.817-9.612c-0.075-0.398-0.341-0.734-0.711-0.9s-0.798-0.14-1.146,0.069l-8.378,5.051
	c-0.49,0.296-0.714,0.889-0.541,1.434c0.172,0.547,0.695,0.902,1.267,0.862l3.272-0.229c-3.125,4.2-7.827,5.923-13.222,6.365v-27.5
	h2.694c0.434,0.324,0.968,0.521,1.551,0.521c1.443,0,2.613-1.169,2.613-2.612c0-1.443-1.17-2.613-2.613-2.613
	c-0.584,0-1.118,0.199-1.553,0.522h-2.692v-3.777c1.533-1.02,2.548-2.759,2.548-4.732c0-3.133-2.55-5.683-5.683-5.683
	s-5.683,2.55-5.683,5.683c0,1.974,1.015,3.713,2.548,4.732v3.777h-2.693c-0.434-0.324-0.968-0.522-1.552-0.522
	c-1.443,0-2.613,1.169-2.613,2.612c0,1.443,1.17,2.612,2.613,2.612c0.583,0,1.117-0.198,1.551-0.521h2.694v27.5
	c-5.394-0.441-10.097-2.165-13.221-6.364l3.272,0.228c0.571,0.04,1.095-0.315,1.267-0.861c0.173-0.546-0.051-1.139-0.542-1.435
	l-8.378-5.051c-0.348-0.209-0.775-0.235-1.145-0.069c-0.371,0.166-0.636,0.502-0.712,0.9l-1.817,9.612
	c-0.106,0.563,0.187,1.125,0.709,1.359c0.522,0.236,1.137,0.083,1.488-0.37l1.955-2.521c3.821,6.188,9.83,11.369,16.76,12.714
	l2.623,2.622c0.484,0.483,1.268,0.483,1.751,0l2.623-2.622c6.93-1.344,12.939-6.525,16.761-12.714l1.954,2.521
	c0.352,0.453,0.966,0.606,1.488,0.37C66.974,47.521,67.267,46.96,67.16,46.396z M42.75,7.744c0.828,0,1.502,0.674,1.502,1.502
	s-0.674,1.501-1.502,1.501c-0.828,0-1.502-0.673-1.502-1.501C41.249,8.418,41.922,7.744,42.75,7.744z"/>
</svg>
