<?xml version="1.0" encoding="utf-8"?>
<!-- Generator: Adobe Illustrator 16.0.0, SVG Export Plug-In . SVG Version: 6.00 Build 0)  -->
<!DOCTYPE svg PUBLIC "-//W3C//DTD SVG 1.1//EN" "http://www.w3.org/Graphics/SVG/1.1/DTD/svg11.dtd">
<svg version="1.1" id="Layer_1" xmlns="http://www.w3.org/2000/svg" xmlns:xlink="http://www.w3.org/1999/xlink" x="0px" y="0px"
	 width="205px" height="185.399px" viewBox="0 0 205 185.399" enable-background="new 0 0 205 185.399" xml:space="preserve">
<g>
	<path fill="#1A171B" d="M105.511,46.899c-4.681-4.353-9.962-10.861-10.153-20.628c2.364,7.956,10.446,19.287,32.172,34.139
		c0,0-23.854-33.392-15.781-52.11c0,0-4.454-2.295-13.345,3.412c0.005-0.014,0.011-0.032,0.016-0.047
		c0,0-14.832,9.937-12.356,20.792c0.486,2.145,0.146,4.737-5.014,7.22c-1.034,0.495-2.875,1.099-2.386,3.913
		c0,0,0.503,2.004,1.503,2.771c0.048,0.037,0.105,0.061,0.15,0.105c1.282,1.223-0.945,0.875-1.647,1.099
		c-1.198,0.384-1.228,2.753,0.67,4.832c0,0-3.06,3.06-1.347,5.749c0,0,0.428,0.489,2.206,0.243c0,0-1.368,9.654,6.054,9.421
		c4.367-0.143,13.886-3.731,17.366,1.898c0,0,11.81,14.497-2.505,34.68c0,0,16.511-6.114,18.226-24.838
		C119.335,79.558,124.598,64.635,105.511,46.899z"/>
	<g>
		<path d="M16.454,121.183v-2.589c0-0.703-0.543-1.247-1.214-1.247c-0.671,0-1.215,0.543-1.215,1.247v2.142
			c0,1.311,0.991,3.005,0.991,3.005l2.75,5.179c1.119,2.046,1.023,3.548,1.023,3.548v2.845c0,1.566-1.279,2.845-2.877,2.845h-1.438
			c-1.534-0.064-2.749-1.311-2.781-2.845v-2.302c0-0.735,0.352-1.087,0.639-1.247c0.192-0.064,1.119-0.48,1.694-0.735v3.9
			c0,0.671,0.543,1.215,1.215,1.215c0.671,0,1.214-0.543,1.214-1.247v-2.557c0-1.311-0.991-3.037-0.991-3.037l-2.749-5.146
			c-1.119-2.046-1.023-3.548-1.023-3.548v-2.302c0-1.566,1.278-2.973,2.877-2.973h1.438c1.534,0.032,2.781,1.438,2.781,2.973v0.863
			c0,0.735-0.352,1.087-0.64,1.247C17.956,120.512,17.061,120.928,16.454,121.183z"/>
		<path d="M38.957,117.219c-0.127,0.288-0.479,0.607-1.214,0.607h-1.791c-0.319,0-0.543,0.256-0.575,0.543v19.564h-1.63
			c-0.543,0-0.639-0.32-0.639-0.479v-19.628h-3.229v-1.566c0-0.383,0.32-0.703,0.704-0.703h9.143L38.957,117.219z"/>
		<path d="M57.272,135.313c0,1.534-1.247,2.685-2.75,2.717v0.032h-1.758c-1.566,0-2.845-1.183-2.845-2.749v-19.117
			c0.032-0.352,0.319-0.639,0.671-0.639h1.63v19.34c0,0.671,0.512,1.215,1.183,1.215h0.352c0.671,0,1.215-0.543,1.215-1.215v-19.34
			h2.302V135.313z"/>
		<path d="M74.373,115.557c1.566,0,2.813,1.247,2.845,2.813v16.751c-0.032,1.566-1.279,2.813-2.845,2.813h-4.443v-22.377H74.373z
			 M74.948,119.009c0-0.831-0.576-1.15-1.215-1.15h-1.502v17.806h1.502c0.639,0,1.215-0.32,1.215-1.183V119.009z"/>
		<path d="M92.176,115.557c0.671,0,0.927,0.511,0.927,0.895v21.482h-1.63c-0.543,0-0.639-0.32-0.671-0.479v-21.897H92.176z"/>
		<path d="M111.26,115.333c1.533,0.064,2.781,1.311,2.781,2.845v17.167c-0.033,1.535-1.248,2.749-2.781,2.813h-1.758
			c-1.566,0-2.846-1.278-2.877-2.813v-17.167c0-1.566,1.278-2.845,2.877-2.845H111.26z M110.492,136.144
			c0.672,0,1.215-0.543,1.215-1.247v-16.303c0-0.703-0.543-1.247-1.215-1.247h-0.352c-0.671,0.032-1.214,0.576-1.214,1.247v16.303
			c0,0.671,0.543,1.215,1.214,1.247H110.492z"/>
		<path d="M149.584,115.557c0,0,1.215-0.128,1.215,1.534v20.843h-1.598c-0.383,0-0.703-0.32-0.703-0.703v-18.893
			c0-0.256-0.064-0.479-0.416-0.543c-0.447-0.096-0.703-0.352-0.799-0.576c-0.096-0.192-0.256-1.087-0.512-1.662H149.584z"/>
		<path d="M173.303,131.413c-0.256,0.607-0.672,1.566-0.768,1.758c-0.16,0.32-0.543,0.671-1.311,0.671h-0.287v4.092h-1.6
			c-0.383,0-0.67-0.32-0.703-0.671v-3.42h-2.461c-0.768,0-1.055-0.352-1.215-0.671l-0.863-1.662l4.381-15.249
			c0.191-0.671,0.639-0.703,0.799-0.703h1.662v15.855H173.303z M166.461,131.413h2.174v-7.544L166.461,131.413z"/>
		<path d="M189.637,115.333c1.566,0,2.844,1.278,2.844,2.845v17.135c0,1.566-1.277,2.845-2.844,2.845h-1.408
			c-1.533-0.064-2.779-1.311-2.779-2.845v-0.991c0-0.735,0.352-1.087,0.639-1.247c0.191-0.096,1.086-0.543,1.662-0.799v2.621
			c0,0.704,0.512,1.247,1.215,1.247c0.672,0,1.215-0.543,1.215-1.247v-5.946h-1.535c-2.717,0-3.195-1.758-3.195-3.229v-7.544
			c0-1.534,1.213-2.813,2.748-2.845H189.637z M190.18,118.594c0-0.703-0.543-1.247-1.215-1.247c-0.639,0-1.15,0.479-1.215,1.119
			v7.256c0,0.831,0.287,1.183,1.215,1.183h1.215V118.594z"/>
	</g>
	<g>
		<path d="M69.282,160.428l-0.341-0.025c-0.034,0.017-0.093,0.075-0.177,0.177c-0.085,0.101-0.213,0.195-0.386,0.284
			c-0.173,0.088-0.275,0.175-0.31,0.259c-0.033,0.084-0.067,0.149-0.101,0.196c-0.034,0.046-0.074,0.107-0.12,0.183
			c-0.046,0.076-0.104,0.139-0.17,0.189c-0.068,0.051-0.123,0.129-0.165,0.233c-0.042,0.105-0.117,0.158-0.227,0.158
			c-0.362,0-0.543-0.231-0.543-0.694c0-0.135,0.084-0.384,0.252-0.745c0.169-0.362,0.354-0.575,0.556-0.639
			c0.202-0.063,0.356-0.12,0.462-0.17c0.104-0.051,0.201-0.095,0.29-0.133s0.322-0.191,0.701-0.461
			c0.017-0.017,0.231-0.08,0.645-0.189l0.467-0.278c0.067-0.084,0.126-0.13,0.177-0.139s0.118-0.033,0.202-0.076l0.215-0.025
			c0.093-0.109,0.24-0.193,0.442-0.252l0.354-0.151c0.235-0.135,0.539-0.257,0.909-0.367l0.076-0.05
			c0.017-0.018,0.042-0.034,0.075-0.051l0.342,0.025c0.101,0,0.168-0.08,0.202-0.24c0.033-0.017,0.059-0.025,0.075-0.025
			l0.315,0.025c0.018,0,0.06-0.021,0.127-0.063c0.067-0.042,0.146-0.071,0.233-0.088c0.089-0.017,0.162-0.063,0.221-0.139
			c0.06-0.076,0.122-0.114,0.19-0.114h0.214c0.067,0,0.147-0.065,0.24-0.195c0.093-0.131,0.219-0.264,0.379-0.398
			c0.034,0.018,0.067,0.025,0.102,0.025c0.05,0,0.097-0.057,0.139-0.171c0.042-0.113,0.103-0.204,0.184-0.271
			c0.079-0.067,0.17-0.187,0.271-0.359c0.101-0.173,0.195-0.282,0.284-0.329c0.088-0.046,0.172-0.113,0.252-0.202
			c0.08-0.088,0.162-0.137,0.247-0.145l0.024-0.025v-0.164c0-0.135,0.118-0.262,0.354-0.379c0.034-0.018,0.08-0.051,0.14-0.102
			v-0.189c0-0.017,0.042-0.073,0.126-0.17c0.084-0.098,0.126-0.167,0.126-0.209c0-0.067,0.133-0.246,0.398-0.537
			c0.265-0.29,0.454-0.469,0.568-0.536c0.113-0.067,0.25-0.236,0.41-0.506l0.177-0.063c0.177-0.236,0.324-0.406,0.442-0.512
			s0.228-0.242,0.328-0.411l0.189-0.215c0.051-0.017,0.076-0.05,0.076-0.101s-0.051-0.076-0.151-0.076
			c-0.109,0-0.266-0.033-0.468-0.101l-0.214,0.075l-0.228-0.024l-0.316,0.151l-0.303-0.025c-0.211,0.126-0.358,0.198-0.442,0.215
			s-0.149,0.033-0.195,0.051c-0.047,0.017-0.1,0.033-0.158,0.05c-0.059,0.018-0.139,0.056-0.24,0.114
			c-0.101,0.059-0.24,0.088-0.417,0.088c-0.067,0-0.149,0.04-0.246,0.12s-0.246,0.179-0.448,0.297c0,0.018-0.009,0.025-0.025,0.025
			l-0.366-0.025c-0.379,0.379-0.619,0.568-0.72,0.568l-0.291-0.051c-0.295,0.11-0.524,0.236-0.688,0.38
			c-0.164,0.143-0.322,0.257-0.474,0.341l-0.228-0.025c-0.202,0.202-0.33,0.322-0.385,0.36c-0.055,0.037-0.105,0.103-0.151,0.195
			c-0.047,0.093-0.129,0.139-0.247,0.139l-0.277,0.215c0,0.127-0.097,0.266-0.291,0.417l-0.024,0.051v0.277
			c0,0.067-0.065,0.158-0.196,0.271c-0.131,0.114-0.229,0.171-0.297,0.171c-0.151,0-0.306-0.099-0.461-0.297
			c-0.156-0.197-0.233-0.402-0.233-0.612c0-0.034,0.025-0.118,0.075-0.253l0.127-0.543c0.067-0.261,0.501-0.522,1.301-0.783
			l0.202-0.151c0.168-0.102,0.29-0.152,0.366-0.152l0.151-0.05l0.076-0.189c0.051-0.034,0.137-0.076,0.259-0.127
			c0.122-0.05,0.233-0.117,0.335-0.202c0.101-0.084,0.248-0.164,0.441-0.239l0.202-0.127h0.266c0.396-0.396,1.306-0.804,2.729-1.225
			s2.581-0.632,3.474-0.632c0.244,0,0.486,0.153,0.727,0.461c0.239,0.308,0.359,0.592,0.359,0.853c0,0.16-0.093,0.324-0.277,0.493
			c-0.135,0.067-0.236,0.221-0.304,0.461c-0.067,0.239-0.181,0.414-0.341,0.523c-0.337,0.295-0.518,0.477-0.543,0.544l-0.114,0.252
			c-0.033,0.076-0.088,0.131-0.164,0.165c-0.075,0.033-0.147,0.126-0.215,0.277s-0.239,0.266-0.518,0.341
			c-0.017,0.009-0.029,0.062-0.038,0.158c-0.008,0.097-0.109,0.2-0.303,0.31l-0.151,0.126c-0.085,0.27-0.164,0.426-0.24,0.468
			l-0.126,0.126c-0.118,0.413-0.313,0.619-0.581,0.619c-0.06,0-0.112,0.074-0.158,0.221c-0.047,0.147-0.171,0.28-0.373,0.398v0.075
			c0.362-0.117,0.623-0.177,0.783-0.177l0.177-0.025l0.076-0.075c0.051,0.033,0.101,0.051,0.151,0.051
			c0.109,0,0.231-0.06,0.366-0.178l0.203,0.025c0.017-0.017,0.046-0.025,0.089-0.025l0.646-0.189
			c0.186-0.033,0.393-0.075,0.621-0.126h0.127c0.287,0,0.511,0.089,0.672,0.266c0.16,0.177,0.24,0.392,0.24,0.644l-0.05,0.354
			l0.024,0.189c0,0.05-0.08,0.126-0.24,0.227l-0.126,0.102c-0.203,0.177-0.418,0.266-0.646,0.266c-0.388,0-0.62-0.097-0.695-0.291
			c0-0.033-0.058-0.055-0.171-0.063c-0.114-0.008-0.2-0.029-0.26-0.063c-0.059-0.034-0.105-0.051-0.139-0.051
			c-0.109,0-0.224-0.017-0.342-0.051c-0.151,0.102-0.316,0.151-0.493,0.151h-0.076l-0.151-0.05l-0.24,0.177
			c-0.018,0-0.043-0.009-0.076-0.025c-0.034-0.017-0.067-0.025-0.102-0.025c-0.05,0-0.107,0.019-0.171,0.057
			c-0.063,0.038-0.128,0.057-0.195,0.057l-0.178-0.063c-0.05,0.025-0.107,0.042-0.171,0.051c-0.063,0.008-0.133,0.063-0.208,0.164
			c-0.076,0.101-0.156,0.151-0.24,0.151c-0.144,0-0.283,0.139-0.418,0.417l-0.076,0.075h-0.075c-0.06,0-0.102,0.069-0.127,0.209
			c-0.025,0.139-0.055,0.226-0.088,0.259c-0.136,0.017-0.218,0.062-0.247,0.133s-0.074,0.217-0.133,0.436l-0.114,0.228l-0.151,0.088
			c-0.084,0.32-0.238,0.624-0.462,0.91s-0.388,0.523-0.493,0.713c-0.105,0.19-0.202,0.318-0.291,0.386s-0.149,0.179-0.184,0.335
			c-0.033,0.155-0.076,0.261-0.126,0.315c-0.051,0.055-0.152,0.238-0.304,0.55l-0.393,0.669l-0.164,0.366
			c-0.06,0.118-0.135,0.178-0.228,0.178c-0.051,0-0.076,0.042-0.076,0.126v0.253c0,0.033-0.084,0.235-0.252,0.605l-0.089,0.253
			c-0.017,0.034-0.067,0.072-0.151,0.114s-0.143,0.151-0.177,0.328c-0.033,0.177-0.081,0.29-0.145,0.341s-0.103,0.158-0.12,0.322
			c-0.017,0.164-0.101,0.271-0.252,0.322c-0.017,0.151-0.031,0.252-0.044,0.303s-0.086,0.105-0.221,0.164h-0.025l0.076,0.43
			c0,0.059-0.018,0.089-0.051,0.089c-0.084,0.05-0.126,0.092-0.126,0.126l0.051,0.151v0.051c0,0.033-0.034,0.113-0.102,0.24v0.025
			c0,0.033,0.034,0.189,0.102,0.467l-0.076,0.151c0,0.152,0.067,0.228,0.202,0.228l0.391-0.252c0.117,0,0.177,0.139,0.177,0.416
			l0.038,0.127c-0.076,0.05-0.114,0.093-0.114,0.126s0.009,0.071,0.025,0.114c0.017,0.042,0.025,0.079,0.025,0.113
			c0,0.277-0.248,0.417-0.744,0.417h-0.051c-0.033,0-0.084-0.018-0.151-0.051l-0.265,0.025c-0.102,0-0.285-0.097-0.55-0.291
			c-0.266-0.193-0.468-0.486-0.606-0.878s-0.208-0.734-0.208-1.029l0.354-1.452c0.033-0.034,0.05-0.089,0.05-0.164
			c0-0.076,0.03-0.165,0.089-0.266l0.151-0.417c0.228-0.404,0.366-0.623,0.417-0.656c0.051-0.034,0.122-0.076,0.215-0.127
			s0.155-0.101,0.189-0.151c-0.151-0.051-0.228-0.097-0.228-0.139c0-0.025,0.065-0.152,0.196-0.379
			c0.13-0.228,0.237-0.35,0.322-0.366c0.017,0,0.024-0.009,0.024-0.025c0-0.018-0.008-0.051-0.024-0.102v-0.025
			c0-0.017,0.05-0.109,0.151-0.277l-0.051-0.189c0.033-0.051,0.082-0.102,0.146-0.151c0.063-0.051,0.149-0.192,0.259-0.424
			s0.193-0.361,0.253-0.392c0.059-0.029,0.101-0.061,0.126-0.095l-0.038-0.354c0-0.033,0.029-0.08,0.089-0.139l0.075-0.151
			c0.034-0.067,0.076-0.131,0.127-0.189c0.05-0.06,0.117-0.16,0.202-0.304l0.088-0.101c0.033-0.051,0.084-0.156,0.151-0.316
			c0-0.168,0.093-0.35,0.278-0.543l0.479-0.745c0.337-0.514,0.506-0.809,0.506-0.885v-0.024c-0.186,0-0.426,0.082-0.72,0.246
			c-0.295,0.164-0.46,0.246-0.493,0.246l-0.29-0.076c-0.034,0.018-0.169,0.147-0.404,0.392c-0.396,0-0.779,0.131-1.149,0.392
			l-0.051,0.025h-0.253l-0.05,0.025l-0.076,0.126c-0.093,0.034-0.206,0.091-0.341,0.171s-0.248,0.137-0.341,0.171L69.282,160.428z"
			/>
		<path d="M88.509,162.676l0.201-0.177c0.126,0,0.202-0.057,0.227-0.171c0.025-0.113,0.116-0.204,0.271-0.271s0.3-0.204,0.435-0.41
			c0.134-0.206,0.272-0.31,0.415-0.31c0.051,0,0.109,0.042,0.177,0.126c0.066,0.085,0.101,0.152,0.101,0.202
			c0,0.278-0.084,0.564-0.253,0.859l-0.05,0.354l-0.089,0.164c-0.126,0.067-0.208,0.139-0.246,0.215s-0.137,0.169-0.297,0.278
			l-0.126,0.177c-0.186,0.059-0.31,0.155-0.373,0.29c-0.063,0.135-0.151,0.211-0.265,0.228c-0.114,0.017-0.238,0.102-0.373,0.253
			c-0.084,0.042-0.185,0.08-0.303,0.113l-0.025,0.126c-0.084,0.085-0.217,0.152-0.397,0.202c-0.182,0.051-0.315,0.1-0.404,0.146
			c-0.089,0.047-0.149,0.069-0.183,0.069c-0.16,0-0.308-0.031-0.442-0.095c-0.135-0.063-0.273-0.103-0.417-0.12
			c-0.05-0.05-0.08-0.104-0.088-0.164c-0.009-0.059-0.051-0.137-0.127-0.233c-0.075-0.097-0.113-0.229-0.113-0.397l0.051-0.24
			c0-0.034-0.021-0.076-0.063-0.127c-0.042-0.05-0.063-0.092-0.063-0.126c0-0.033,0.008-0.059,0.024-0.076
			c0.018-0.017,0.025-0.042,0.025-0.075c0-0.042-0.008-0.089-0.025-0.139c-0.017-0.051-0.024-0.093-0.024-0.127l0.075-0.619
			c0-0.05-0.017-0.075-0.051-0.075c-0.033,0-0.095,0.042-0.183,0.126c-0.089,0.084-0.191,0.127-0.31,0.127
			c-0.067,0.05-0.122,0.155-0.164,0.315c-0.067,0.084-0.152,0.16-0.253,0.228l-0.051,0.075c-0.017,0.06-0.08,0.107-0.189,0.146
			s-0.186,0.087-0.228,0.146l-0.126,0.126l-0.24-0.025c-0.017,0.018-0.063,0.091-0.139,0.222c-0.076,0.13-0.173,0.237-0.291,0.322
			l-0.96,0.782c-0.101,0.068-0.248,0.152-0.442,0.253l-0.075,0.076c-0.674,0.446-1.15,0.669-1.428,0.669
			c-0.228,0-0.493-0.063-0.796-0.189c-0.304-0.126-0.468-0.277-0.493-0.454l-0.126-0.519c-0.076-0.117-0.113-0.282-0.113-0.492
			c0-0.102,0.008-0.169,0.024-0.202v-0.076l-0.024-0.417c0-0.101,0.079-0.151,0.239-0.151l-0.025-0.341
			c0-0.033,0.074-0.166,0.222-0.397c0.147-0.232,0.246-0.364,0.297-0.398l0.126-0.164c-0.009-0.102,0.051-0.208,0.177-0.322
			c0.127-0.113,0.228-0.229,0.304-0.348c0.076-0.117,0.22-0.248,0.431-0.392l0.379-0.379c0.295-0.294,0.615-0.53,0.961-0.707
			c0.051-0.017,0.154-0.101,0.31-0.253c0.156-0.151,0.334-0.263,0.532-0.334c0.197-0.072,0.392-0.162,0.581-0.272
			c0.189-0.109,0.34-0.164,0.449-0.164h0.102c0.033,0,0.257-0.104,0.67-0.315h0.076c0.033,0,0.113,0.033,0.24,0.101h0.025
			l0.202-0.101c0.033-0.017,0.076-0.025,0.126-0.025c0.522,0,0.81,0.362,0.86,1.086c0.017,0.152,0.06,0.228,0.127,0.228
			c0.084,0,0.204-0.153,0.359-0.461c0.156-0.308,0.487-0.461,0.992-0.461c0.362,0,0.544,0.231,0.544,0.694
			c0,0.548-0.245,1.065-0.733,1.554c-0.033,0.068-0.059,0.144-0.075,0.228l-0.177,0.519v0.024c0,0.051-0.036,0.12-0.107,0.209
			c-0.072,0.088-0.107,0.166-0.107,0.233l0.025,0.316l-0.051,0.354c0,0.16,0.029,0.265,0.088,0.315
			c0.269-0.067,0.464-0.179,0.586-0.335c0.122-0.155,0.208-0.241,0.258-0.259l0.126-0.051
			C88.321,162.865,88.409,162.76,88.509,162.676z M84.315,162.676c0.033-0.186,0.137-0.326,0.31-0.423s0.275-0.196,0.31-0.297
			c0.16-0.118,0.39-0.329,0.688-0.632s0.448-0.488,0.448-0.556c0-0.025-0.017-0.038-0.05-0.038h-0.025l-0.102,0.063l-0.228-0.025
			l-0.24,0.025l-0.177-0.089l-0.164,0.025l-0.253-0.051c-0.135,0-0.25,0.027-0.347,0.082c-0.097,0.056-0.282,0.116-0.557,0.184
			c-0.273,0.067-0.52,0.184-0.738,0.348c-0.22,0.164-0.38,0.246-0.48,0.246c-0.059,0.126-0.257,0.308-0.594,0.543
			c-0.202,0.067-0.333,0.215-0.392,0.442c-0.219,0.177-0.328,0.277-0.328,0.303l-0.089,0.215c-0.067,0.06-0.151,0.107-0.253,0.146
			c-0.101,0.038-0.16,0.126-0.177,0.266c-0.017,0.139-0.073,0.265-0.17,0.379c-0.098,0.113-0.146,0.204-0.146,0.271
			c0,0.412,0.08,0.618,0.24,0.618c0.067,0,0.208-0.044,0.423-0.132c0.215-0.089,0.339-0.149,0.373-0.184
			c0.033-0.033,0.101-0.067,0.202-0.101l0.239-0.127c0.034-0.033,0.072-0.055,0.114-0.063c0.042-0.009,0.084-0.036,0.126-0.082
			c0.042-0.047,0.118-0.097,0.228-0.152c0.109-0.055,0.193-0.128,0.253-0.221c0.143-0.084,0.375-0.215,0.694-0.392l0.266-0.202
			c0.186-0.084,0.299-0.155,0.341-0.215C84.104,162.794,84.189,162.734,84.315,162.676z"/>
		<path d="M92.006,159.909l0.177-0.315c0.051-0.076,0.116-0.153,0.196-0.233s0.166-0.286,0.259-0.619s0.196-0.563,0.31-0.688
			c0.114-0.126,0.28-0.189,0.5-0.189c0.126,0,0.293,0.062,0.499,0.183c0.207,0.123,0.409,0.491,0.607,1.105
			c0.197,0.615,0.297,1.049,0.297,1.302c0,0.101,0.029,0.229,0.088,0.385c0.06,0.156,0.098,0.276,0.114,0.36
			c-0.067,0.143-0.101,0.223-0.101,0.239l0.025,0.519l-0.152,0.417v0.303c-0.101,0.169-0.151,0.273-0.151,0.315
			c0,0.051,0.017,0.102,0.051,0.152c0.396-0.169,0.635-0.306,0.719-0.411c0.084-0.104,0.166-0.17,0.246-0.195
			s0.212-0.135,0.397-0.329l0.239-0.126c0.084-0.101,0.156-0.191,0.215-0.271s0.128-0.137,0.208-0.171
			c0.079-0.033,0.174-0.092,0.283-0.177c0.109-0.084,0.27-0.181,0.479-0.29l0.126-0.151c0.126-0.144,0.275-0.257,0.448-0.342
			c0.172-0.084,0.267-0.126,0.283-0.126c0.059,0,0.12,0.078,0.183,0.233c0.063,0.156,0.095,0.31,0.095,0.461
			c0,0.144-0.082,0.284-0.246,0.424c-0.164,0.139-0.275,0.242-0.334,0.31c-0.06,0.067-0.193,0.126-0.404,0.177
			c-0.017,0.008-0.155,0.181-0.416,0.518l-0.253,0.151l-0.126,0.164c-0.017,0.034-0.13,0.068-0.341,0.102
			c-0.008,0-0.027,0.042-0.057,0.126c-0.029,0.085-0.12,0.144-0.271,0.177c-0.303,0.278-0.458,0.435-0.467,0.468l-0.265,0.051
			c-0.051,0.16-0.093,0.257-0.126,0.29c-0.202,0.051-0.315,0.135-0.341,0.253c-0.025,0.017-0.067,0.033-0.126,0.051l-0.051,0.037
			c-0.193,0.152-0.383,0.245-0.568,0.278l-0.29,0.076l-0.101,0.151c0,0.042-0.104,0.097-0.31,0.164s-0.359,0.151-0.46,0.253
			l-0.215,0.164c-0.261,0.101-0.425,0.193-0.492,0.277h-0.177c-0.118,0-0.303,0.087-0.556,0.26
			c-0.252,0.172-0.454,0.259-0.605,0.259c-0.487,0-0.822-0.062-1.003-0.184s-0.33-0.273-0.448-0.455
			c-0.117-0.181-0.225-0.326-0.321-0.436s-0.146-0.197-0.146-0.265c0-0.06,0.04-0.118,0.12-0.177c0.08-0.06,0.166-0.18,0.259-0.36
			s0.328-0.297,0.707-0.348c0.017,0,0.077-0.025,0.183-0.075c0.104-0.051,0.191-0.076,0.259-0.076c0.084,0,0.188,0.076,0.315,0.228
			c0,0.017,0.017,0.025,0.051,0.025l0.201-0.025c0.093,0.067,0.156,0.101,0.189,0.101c0.202,0,0.416-0.101,0.644-0.303l0.051-0.025
			h0.101c0.025,0,0.067-0.071,0.126-0.215l0.215-0.442l0.441-0.568v-0.126c0-0.025,0.025-0.102,0.076-0.228v-0.189
			c0-0.076,0.05-0.124,0.151-0.146c0.101-0.021,0.151-0.073,0.151-0.157l-0.025-0.102c-0.067-0.093-0.101-0.164-0.101-0.215
			l0.126-0.252l-0.025-0.266l0.051-0.102c-0.034-0.117-0.051-0.185-0.051-0.201l0.051-0.316c0-0.008-0.023-0.088-0.069-0.24
			c-0.047-0.151-0.083-0.227-0.107-0.227c-0.051,0-0.211,0.13-0.481,0.392c-0.27,0.261-0.43,0.446-0.48,0.556
			c-0.05,0.109-0.158,0.208-0.322,0.297c-0.164,0.088-0.276,0.188-0.335,0.297c-0.06,0.109-0.131,0.172-0.215,0.189l-0.848,0.682
			l-0.923,0.683c-0.067,0.075-0.109,0.113-0.127,0.113c-0.312,0-0.468-0.173-0.468-0.518c0-0.109,0.063-0.308,0.189-0.594
			c0.06-0.034,0.104-0.06,0.133-0.076c0.03-0.017,0.044-0.029,0.044-0.038c0-0.008-0.008-0.013-0.024-0.013l0.075,0.051h0.025
			c0.313-0.21,0.515-0.332,0.607-0.366c0.093-0.033,0.177-0.126,0.253-0.278l0.531-0.379c0.135-0.101,0.341-0.286,0.619-0.556
			S91.93,160.036,92.006,159.909z"/>
		<path d="M97.285,161.337l0.102-0.139c0.22-0.051,0.359-0.135,0.418-0.253c0.025-0.059,0.237-0.278,0.635-0.657
			s0.617-0.581,0.66-0.605c0.269-0.489,0.432-0.855,0.49-1.1c0.101-0.051,0.151-0.109,0.151-0.177l0.101-0.202l0.113-0.025
			l0.051-0.05v-0.114c0-0.151,0.163-0.505,0.49-1.061c0.328-0.683,0.505-1.06,0.53-1.131s0.076-0.177,0.151-0.315
			c0.076-0.14,0.191-0.406,0.348-0.803c0.155-0.396,0.397-0.809,0.727-1.237c0.033-0.018,0.084-0.112,0.151-0.284
			c0.067-0.173,0.173-0.344,0.315-0.512l0.152-0.266c0.05-0.084,0.139-0.231,0.265-0.442c0.127-0.21,0.242-0.376,0.348-0.499
			c0.105-0.121,0.185-0.25,0.24-0.385c0.055-0.135,0.12-0.231,0.195-0.291c0.076-0.059,0.153-0.166,0.233-0.321
			c0.08-0.156,0.204-0.234,0.373-0.234c0.328,0,0.566,0.135,0.714,0.404s0.221,0.506,0.221,0.708c0,0.024-0.051,0.206-0.151,0.543
			l-0.189,1.137c-0.169,0.084-0.253,0.181-0.253,0.29c0,0.447-0.173,0.91-0.518,1.39c-0.034,0.034-0.062,0.144-0.082,0.329
			c-0.021,0.185-0.095,0.337-0.222,0.454c-0.126,0.118-0.239,0.316-0.341,0.594l-1.175,1.68l-0.101,0.102
			c-0.051,0.033-0.109,0.105-0.177,0.215l-0.202-0.063c-0.228,0-0.341,0.071-0.341,0.215c0,0.051,0.017,0.118,0.05,0.202v0.025
			c0,0.009-0.312,0.45-0.935,1.326c-0.033,0.051-0.093,0.215-0.177,0.492l-0.177,0.379c-0.177,0.245-0.301,0.482-0.373,0.714
			c-0.071,0.232-0.166,0.419-0.284,0.563c-0.168,0.379-0.252,0.577-0.252,0.594c0,0.051,0.024,0.075,0.075,0.075
			s0.171-0.126,0.36-0.379c0.189-0.252,0.345-0.421,0.467-0.505s0.226-0.202,0.311-0.354l0.126-0.089
			c0.034-0.017,0.105-0.067,0.215-0.151l0.127,0.025c0.067-0.051,0.109-0.109,0.126-0.177c0.018-0.067,0.043-0.118,0.076-0.151
			c0.22-0.025,0.356-0.105,0.411-0.24s0.12-0.202,0.196-0.202c0.067,0,0.156-0.078,0.266-0.233c0.11-0.156,0.264-0.282,0.462-0.379
			s0.346-0.184,0.443-0.26c0.097-0.075,0.293-0.166,0.588-0.271c0.296-0.104,0.493-0.157,0.595-0.157h0.076l0.101,0.025l0.19-0.025
			c0.295,0,0.59,0.082,0.885,0.246s0.421,0.419,0.379,0.764l-0.101,0.783l-0.139,0.619c-0.018,0.102-0.085,0.324-0.202,0.67
			c-0.118,0.345-0.178,0.543-0.178,0.594l-0.05,0.239l0.05,0.329l-0.024,0.265c0,0.085,0.041,0.127,0.125,0.127
			c0.034,0,0.126-0.076,0.277-0.228c0.093,0.017,0.181-0.033,0.265-0.151s0.197-0.24,0.34-0.366c0-0.034,0.055-0.065,0.164-0.095
			c0.108-0.03,0.26-0.129,0.453-0.297c0.033-0.076,0.196-0.238,0.49-0.486c0.294-0.249,0.575-0.44,0.844-0.575l0.076-0.101
			c0.143-0.144,0.272-0.215,0.39-0.215s0.177,0.063,0.177,0.189c0,0.084-0.021,0.173-0.063,0.265
			c-0.042,0.093-0.071,0.213-0.088,0.36c-0.018,0.147-0.102,0.36-0.253,0.638l-0.05,0.127c-0.06,0.143-0.131,0.227-0.215,0.252
			s-0.175,0.095-0.271,0.209c-0.097,0.113-0.296,0.221-0.599,0.321c-0.135,0.253-0.24,0.38-0.315,0.38l-0.228-0.102
			c-0.176,0.144-0.265,0.291-0.265,0.442c-0.219,0.186-0.349,0.308-0.391,0.366l-0.253-0.025c-0.067,0-0.101,0.093-0.101,0.278
			c0,0.017-0.086,0.073-0.259,0.17c-0.172,0.097-0.305,0.184-0.397,0.259c-0.092,0.076-0.29,0.114-0.593,0.114
			c-0.033,0-0.084-0.029-0.151-0.089c-0.067-0.059-0.166-0.109-0.296-0.151c-0.131-0.042-0.221-0.141-0.271-0.297
			c-0.051-0.155-0.105-0.278-0.164-0.366c-0.059-0.089-0.088-0.158-0.088-0.208l0.024-0.253l-0.063-0.266l0.113-0.177
			c-0.051-0.118-0.075-0.197-0.075-0.24l0.126-0.771c0.093-0.556,0.168-0.917,0.228-1.086c0.017-0.017,0.025-0.067,0.025-0.151
			l-0.025-0.316l0.025-0.177c0-0.126-0.043-0.193-0.127-0.202c-0.084-0.008-0.135-0.029-0.151-0.063
			c-0.109-0.051-0.173-0.076-0.189-0.076c-0.067,0-0.127,0.053-0.178,0.158c-0.05,0.105-0.118,0.2-0.202,0.284l-0.315-0.051v0.025
			c0,0.067-0.114,0.198-0.342,0.392c-0.211,0.051-0.392,0.16-0.544,0.328c-0.067,0-0.184,0.065-0.348,0.196
			c-0.164,0.13-0.271,0.204-0.322,0.221l-0.102,0.202l-0.202,0.063c-0.059,0.168-0.198,0.277-0.417,0.328l-0.127,0.24
			c-0.177,0.017-0.299,0.107-0.366,0.271s-0.118,0.246-0.151,0.246c-0.018,0-0.045-0.011-0.083-0.031
			c-0.037-0.021-0.073-0.032-0.107-0.032c-0.186,0-0.286,0.14-0.303,0.417c0,0.034-0.173,0.231-0.519,0.594
			s-0.531,0.548-0.557,0.556c-0.025,0.009-0.074,0.095-0.146,0.259c-0.071,0.165-0.171,0.287-0.297,0.367
			c-0.127,0.08-0.222,0.145-0.285,0.195c-0.063,0.051-0.111,0.076-0.146,0.076c-0.177,0-0.32-0.127-0.43-0.379
			c-0.109-0.253-0.164-0.384-0.164-0.392l0.076-0.266l-0.025-0.228c0-0.008,0.053-0.179,0.157-0.512
			c0.105-0.332,0.226-0.594,0.361-0.783c0.135-0.189,0.24-0.499,0.315-0.928c-0.379,0.252-0.606,0.379-0.683,0.379
			c-0.169,0-0.253-0.109-0.253-0.329C96.891,162.019,97.022,161.657,97.285,161.337z"/>
		<path d="M108.248,161.564l0.203-0.177h0.075c0.059,0,0.147-0.063,0.266-0.189l0.127-0.051c0.168-0.253,0.315-0.4,0.442-0.442
			l0.202-0.151c0.033-0.033,0.082-0.063,0.146-0.089c0.063-0.024,0.164-0.106,0.304-0.246c0.139-0.139,0.25-0.208,0.335-0.208
			c0.084,0,0.151,0.008,0.202,0.025c0.051-0.102,0.152-0.2,0.305-0.297c0.15-0.097,0.273-0.213,0.365-0.348l0.166-0.076
			c0.135-0.067,0.254-0.153,0.359-0.259c0.105-0.104,0.242-0.157,0.412-0.157c0.244,0,0.498,0.124,0.764,0.372
			c0.266,0.249,0.398,0.486,0.398,0.714l-0.215,0.985c-0.145,0.725-0.303,1.104-0.48,1.137l-0.051,0.266
			c-0.117,0.084-0.176,0.151-0.176,0.202l0.074,0.303c0,0.042-0.045,0.105-0.139,0.189c-0.016,0-0.025,0.025-0.025,0.076v0.518
			c0,0.093-0.059,0.169-0.176,0.228c0.016,0.017,0.041,0.033,0.076,0.051c0.049-0.051,0.164-0.076,0.34-0.076l0.203,0.025
			l0.277-0.278c0.059-0.017,0.141-0.057,0.246-0.12c0.104-0.063,0.283-0.145,0.535-0.246l1.652-1.263
			c0.227-0.228,0.4-0.342,0.518-0.342c0.127,0,0.189,0.08,0.189,0.24c0,0.186-0.035,0.339-0.107,0.461s-0.137,0.27-0.195,0.442
			s-0.129,0.293-0.209,0.36s-0.145,0.141-0.195,0.221s-0.188,0.195-0.41,0.348c-0.225,0.151-0.414,0.305-0.568,0.461
			c-0.156,0.155-0.285,0.268-0.387,0.335l-0.543,0.392l-0.074,0.126c-0.018,0.017-0.096,0.053-0.234,0.107s-0.264,0.124-0.373,0.208
			l-0.227,0.127c-0.051,0.033-0.133,0.055-0.246,0.063c-0.113,0.009-0.213,0.058-0.297,0.146c-0.084,0.089-0.152,0.133-0.203,0.133
			l-0.189-0.025l-0.252,0.076c-0.143,0-0.318-0.087-0.523-0.26c-0.207-0.172-0.311-0.355-0.311-0.549v-0.076l0.025-0.177
			c0-0.033-0.025-0.12-0.076-0.259c-0.049-0.139-0.075-0.217-0.075-0.233l0.026-0.177l-0.026-0.076c0-0.228,0.016-0.37,0.049-0.43
			c0.035-0.059,0.061-0.141,0.076-0.246c0.018-0.105,0.033-0.191,0.051-0.259l0.063-0.316c0.035-0.101,0.076-0.168,0.127-0.202
			c0.018-0.066,0.051-0.181,0.102-0.341l0.051-0.228l0.125-0.177c0.068-0.067,0.107-0.157,0.121-0.271
			c0.012-0.113,0.057-0.233,0.133-0.359c0.076-0.127,0.113-0.202,0.113-0.228c0-0.102-0.051-0.151-0.152-0.151
			c-0.033,0-0.139,0.067-0.314,0.201l-0.229-0.075c-0.018,0-0.063,0.042-0.139,0.126c0,0.034-0.037,0.06-0.113,0.076
			c-0.076,0.017-0.148,0.08-0.215,0.189l-0.101,0.025l-0.165-0.076h-0.05c-0.085,0-0.135,0.093-0.152,0.278
			c-0.093,0.135-0.215,0.223-0.366,0.265l-0.277,0.076c-0.093,0.033-0.16,0.109-0.203,0.228c-0.042,0.118-0.126,0.226-0.252,0.322
			c-0.127,0.097-0.211,0.145-0.253,0.145c-0.235,0-0.354-0.13-0.354-0.392l0.101-0.594L108.248,161.564z M113.705,155.248
			l-0.076-0.492v-0.076c0-0.396,0.135-0.614,0.404-0.656c0.059-0.009,0.236-0.063,0.531-0.164c0.15,0.033,0.309,0.166,0.473,0.397
			s0.246,0.436,0.246,0.612c0,0.018-0.012,0.056-0.037,0.114s-0.043,0.17-0.051,0.335c-0.008,0.164-0.09,0.307-0.246,0.429
			s-0.322,0.184-0.5,0.184c-0.117,0-0.268-0.082-0.447-0.246C113.82,155.52,113.721,155.375,113.705,155.248z"/>
		<path d="M122.686,164.621l-0.594,0.518c-0.035-0.033-0.068-0.05-0.102-0.05c-0.084,0-0.188,0.075-0.311,0.227
			c-0.121,0.152-0.207,0.228-0.258,0.228l-0.127-0.025c-0.211,0.16-0.361,0.253-0.455,0.278c-0.092,0.025-0.205,0.071-0.334,0.139
			c-0.131,0.067-0.25,0.105-0.355,0.114c-0.105,0.008-0.191,0.044-0.258,0.107c-0.068,0.063-0.232,0.095-0.494,0.095l-0.201-0.025
			c-0.109,0.05-0.182,0.075-0.215,0.075c-0.068,0-0.141-0.035-0.215-0.107c-0.076-0.071-0.158-0.111-0.248-0.119
			c-0.088-0.009-0.178-0.067-0.271-0.178c-0.092-0.109-0.178-0.185-0.258-0.227s-0.146-0.102-0.197-0.177l-0.176-0.152
			c-0.145-0.101-0.283-0.286-0.418-0.556s-0.201-0.479-0.201-0.632v-0.05l0.025-0.24l-0.025-0.278
			c0.033-0.033,0.074-0.104,0.125-0.215v-0.403l0.305-1.011c0.016-0.042-0.018-0.097-0.102-0.164
			c-0.084,0.126-0.17,0.202-0.254,0.227c-0.084,0.025-0.143,0.085-0.172,0.178s-0.078,0.139-0.146,0.139l-0.152-0.051
			c-0.018,0.017-0.055,0.104-0.115,0.259c-0.059,0.156-0.16,0.234-0.305,0.234c-0.152,0-0.229-0.06-0.229-0.178l0.025-0.227
			l-0.076-0.316c0-0.067,0.066-0.199,0.201-0.397c0.137-0.198,0.26-0.312,0.373-0.341c0.115-0.03,0.213-0.109,0.293-0.24
			s0.254-0.288,0.523-0.474c0.152-0.034,0.283-0.144,0.393-0.329c0.119-0.092,0.271-0.168,0.463-0.227
			c0.189-0.06,0.332-0.146,0.43-0.26c0.098-0.113,0.383-0.29,0.859-0.53c0.479-0.24,0.826-0.359,1.045-0.359
			c0.068,0,0.16-0.02,0.279-0.058c0.117-0.037,0.227-0.071,0.328-0.101s0.207-0.076,0.316-0.139
			c0.109-0.063,0.197-0.095,0.266-0.095l0.367,0.126c0.27,0.076,0.434,0.131,0.494,0.164c0.016,0.017,0.102,0.053,0.258,0.107
			s0.316,0.129,0.482,0.221c0.164,0.093,0.246,0.266,0.246,0.519c-0.145,0.21-0.215,0.324-0.215,0.341
			c0,0.033,0.096,0.084,0.291,0.151c0.066,0.127,0.168,0.291,0.303,0.493l0.139,0.441l0.025,1.036l-0.025,0.101
			c-0.092,0.085-0.139,0.14-0.139,0.165l0.039,0.252l-0.102,0.354c-0.025,0.11-0.068,0.182-0.127,0.215
			c-0.059,0.034-0.096,0.076-0.113,0.127l-0.076,0.101c-0.018,0.025-0.053,0.1-0.107,0.222s-0.115,0.217-0.184,0.284
			c-0.066,0.067-0.109,0.147-0.125,0.239c-0.018,0.093-0.061,0.16-0.127,0.202c-0.068,0.043-0.117,0.087-0.146,0.133
			C122.801,164.548,122.752,164.588,122.686,164.621z M118.76,164.949l0.051,0.291l0.025,0.025h0.201l0.064,0.025
			c0.168,0.033,0.293,0.05,0.377,0.05c0.262,0,0.469-0.064,0.625-0.195c0.154-0.131,0.279-0.196,0.371-0.196s0.17-0.063,0.232-0.189
			c0.064-0.126,0.104-0.189,0.121-0.189h0.176l0.051-0.025c0-0.193,0.086-0.332,0.258-0.416c0.172-0.085,0.295-0.196,0.365-0.335
			c0.072-0.14,0.154-0.244,0.246-0.316c0.092-0.071,0.156-0.166,0.189-0.284l0.1-0.151c0.035-0.033,0.051-0.097,0.051-0.189
			l0.24-0.455c0.051-0.21,0.076-0.374,0.076-0.492c0-0.177-0.092-0.315-0.271-0.417c-0.182-0.101-0.271-0.299-0.271-0.594
			c0-0.193,0.1-0.372,0.297-0.536c0.197-0.165,0.297-0.264,0.297-0.297c0-0.051-0.025-0.076-0.076-0.076
			c-0.025,0-0.123,0.033-0.291,0.101c-0.059,0.118-0.357,0.274-0.895,0.468c-0.176-0.084-0.273-0.126-0.289-0.126
			c-0.051,0-0.102,0.05-0.152,0.151c-0.051,0.101-0.1,0.173-0.15,0.215h-0.164c-0.018,0-0.072,0.055-0.164,0.164
			s-0.209,0.164-0.354,0.164l-0.15,0.151c0.008,0.135-0.076,0.274-0.252,0.417l-0.139,0.164c-0.084,0.102-0.193,0.22-0.328,0.354
			L119,162.777c-0.092,0.219-0.139,0.383-0.139,0.492c-0.025,0.051-0.082,0.104-0.17,0.158c-0.09,0.055-0.133,0.124-0.133,0.208
			c0,0.017,0.029,0.06,0.088,0.126c0.059,0.068,0.088,0.118,0.088,0.152l-0.051,0.164l-0.049,0.467L118.76,164.949z"/>
		<path d="M136.563,163.459h0.051l0.125,0.051c0.018,0,0.035-0.009,0.051-0.025c0-0.144,0.068-0.266,0.203-0.366
			c0.043-0.16,0.137-0.282,0.285-0.366c0.146-0.084,0.381-0.224,0.703-0.417l0.316-0.278l0.152-0.075l0.1-0.127
			c0.094-0.109,0.182-0.164,0.268-0.164c0.125,0,0.189,0.047,0.189,0.139l-0.115,0.253l0.051,0.417c0,0.151-0.053,0.286-0.158,0.404
			s-0.268,0.29-0.486,0.518l-0.645,0.683l-0.342,0.177c-0.084,0.051-0.16,0.109-0.229,0.177l-0.492,0.417
			c0,0.118-0.039,0.206-0.113,0.265h-0.203l-0.102,0.051c-0.059,0.16-0.232,0.315-0.518,0.468l-0.178,0.126
			c-0.059,0.051-0.113,0.076-0.164,0.076l-0.355-0.051l-0.24,0.051c-0.066,0-0.158-0.034-0.271-0.102s-0.229-0.12-0.348-0.158
			c-0.117-0.037-0.268-0.193-0.449-0.467s-0.279-0.453-0.297-0.537c0-0.033-0.02-0.09-0.057-0.17
			c-0.039-0.08-0.057-0.129-0.057-0.146s0.037-0.102,0.113-0.253v-0.025c0-0.025-0.023-0.084-0.07-0.177
			c-0.045-0.093-0.068-0.206-0.068-0.341c0-0.076-0.025-0.173-0.076-0.291c0.066-0.067,0.102-0.117,0.102-0.151
			c0-0.033-0.014-0.082-0.039-0.146c-0.025-0.063-0.037-0.111-0.037-0.145l0.076-0.619l-0.051-0.316l0.025-0.303
			c0-0.177-0.076-0.266-0.227-0.266c-0.068,0-0.15,0.047-0.252,0.14l-0.088,0.025c-0.227,0.109-0.387,0.2-0.479,0.271
			s-0.189,0.107-0.289,0.107c-0.051,0.05-0.146,0.097-0.291,0.139l-0.1,0.076c-0.033,0.033-0.102,0.084-0.201,0.151
			c0,0.025-0.158,0.166-0.473,0.423s-0.598,0.499-0.85,0.727s-0.434,0.352-0.547,0.372c-0.113,0.021-0.17,0.129-0.17,0.322
			c0,0.034-0.076,0.102-0.227,0.202c-0.018,0-0.105,0.093-0.266,0.278c-0.133-0.102-0.209-0.151-0.227-0.151
			c-0.109,0-0.189,0.139-0.24,0.416c-0.051,0.11-0.186,0.177-0.404,0.202c-0.018,0.009-0.047,0.072-0.09,0.189l-0.051,0.051h-0.125
			c-0.018,0-0.076,0.049-0.178,0.146s-0.189,0.158-0.266,0.183c-0.111,0.228-0.203,0.342-0.279,0.342
			c-0.033,0-0.082-0.018-0.146-0.051c-0.063-0.033-0.141-0.063-0.232-0.089c-0.094-0.025-0.197-0.128-0.311-0.31
			c-0.113-0.181-0.17-0.334-0.17-0.461c0-0.935,0.182-1.444,0.543-1.528l0.025-0.051v-0.101c0-0.109,0.049-0.188,0.145-0.233
			c0.098-0.047,0.195-0.14,0.297-0.278s0.168-0.217,0.203-0.233h0.164c0.033,0,0.051-0.089,0.051-0.266
			c0-0.051,0.02-0.097,0.063-0.139s0.066-0.104,0.076-0.184c0.008-0.079,0.068-0.21,0.184-0.392c0.113-0.181,0.17-0.288,0.17-0.321
			l-0.025-0.051c-0.211,0.193-0.361,0.299-0.455,0.315c-0.092,0.018-0.219,0.139-0.379,0.366l-0.201-0.038
			c-0.355,0.262-0.574,0.409-0.658,0.442c-0.084,0.034-0.178,0.131-0.279,0.291c0,0.05-0.029,0.084-0.088,0.101
			c-0.061,0.018-0.17,0.084-0.33,0.202h-0.076c-0.211,0-0.316-0.151-0.316-0.455l0.266-0.72c0.074-0.228,0.254-0.419,0.535-0.574
			c0.283-0.156,0.52-0.306,0.713-0.449c0.193-0.143,0.389-0.219,0.582-0.227l0.088-0.127c0.285-0.109,0.479-0.282,0.58-0.518
			s0.24-0.354,0.416-0.354c0.463,0,0.816,0.17,1.061,0.512c0.244,0.341,0.365,0.612,0.365,0.814l0.025,0.341
			c0,0.118-0.025,0.282-0.074,0.493c-0.102,0.151-0.152,0.265-0.152,0.341c0,0.067,0.043,0.101,0.127,0.101
			c0.051,0,0.117-0.035,0.201-0.107c0.084-0.071,0.18-0.137,0.283-0.195c0.105-0.059,0.168-0.109,0.184-0.151
			c0.084-0.202,0.232-0.342,0.441-0.417c0.211-0.076,0.342-0.139,0.393-0.189l0.125-0.102l0.102-0.189
			c0.227-0.101,0.379-0.193,0.455-0.277c0.074-0.084,0.176-0.139,0.303-0.164c0.125-0.025,0.27-0.102,0.428-0.228l0.189-0.051
			l0.178-0.101c0.016-0.018,0.066-0.038,0.15-0.063s0.209-0.069,0.373-0.133s0.275-0.095,0.334-0.095
			c0.43,0,0.768,0.173,1.016,0.518c0.248,0.346,0.373,0.624,0.373,0.834l-0.025,0.228l0.051,0.341v0.051l-0.102,0.694l0.025,0.24
			c0,0.396-0.084,0.67-0.252,0.821c-0.043,0.017-0.064,0.059-0.064,0.126v0.114l0.254,0.53c0.076,0.186,0.135,0.277,0.176,0.277
			l0.406-0.113c0.117-0.033,0.215-0.122,0.291-0.266c0.068-0.033,0.186-0.134,0.355-0.303
			C136.371,163.526,136.453,163.459,136.563,163.459z"/>
	</g>
</g>
</svg>
